<mxfile host="app.diagrams.net" agent="Mozilla/5.0 (X11; Linux x86_64) AppleWebKit/537.36 (KHTML, like Gecko) Chrome/132.0.0.0 Safari/537.36" version="24.8.3">
  <diagram name="페이지-1" id="waIALwDo8CJ5Gp1wlmUc">
    <mxGraphModel dx="1364" dy="793" grid="1" gridSize="10" guides="1" tooltips="1" connect="1" arrows="1" fold="1" page="1" pageScale="1" pageWidth="827" pageHeight="1169" math="0" shadow="0">
      <root>
        <mxCell id="0" />
        <mxCell id="1" parent="0" />
        <mxCell id="rx5BBwoxbv0PvwcBal-X-1" value="" style="sketch=0;points=[[0,0,0],[0.25,0,0],[0.5,0,0],[0.75,0,0],[1,0,0],[0,1,0],[0.25,1,0],[0.5,1,0],[0.75,1,0],[1,1,0],[0,0.25,0],[0,0.5,0],[0,0.75,0],[1,0.25,0],[1,0.5,0],[1,0.75,0]];outlineConnect=0;fontColor=#232F3E;fillColor=#E7157B;strokeColor=#ffffff;dashed=0;verticalLabelPosition=bottom;verticalAlign=top;align=center;html=1;fontSize=12;fontStyle=0;aspect=fixed;shape=mxgraph.aws4.resourceIcon;resIcon=mxgraph.aws4.managed_workflows_for_apache_airflow;" vertex="1" parent="1">
          <mxGeometry x="40" y="240" width="78" height="78" as="geometry" />
        </mxCell>
        <mxCell id="rx5BBwoxbv0PvwcBal-X-2" value="Airflow" style="text;html=1;align=center;verticalAlign=middle;whiteSpace=wrap;rounded=0;" vertex="1" parent="1">
          <mxGeometry x="49" y="318" width="60" height="30" as="geometry" />
        </mxCell>
        <mxCell id="rx5BBwoxbv0PvwcBal-X-3" value="Amazon SQS" style="sketch=0;outlineConnect=0;fontColor=#232F3E;gradientColor=none;strokeColor=#ffffff;fillColor=#232F3E;dashed=0;verticalLabelPosition=middle;verticalAlign=bottom;align=center;html=1;whiteSpace=wrap;fontSize=10;fontStyle=1;spacing=3;shape=mxgraph.aws4.productIcon;prIcon=mxgraph.aws4.sqs;" vertex="1" parent="1">
          <mxGeometry x="180" y="238" width="80" height="100" as="geometry" />
        </mxCell>
        <mxCell id="rx5BBwoxbv0PvwcBal-X-4" value="Application Load Balancer" style="sketch=0;outlineConnect=0;fontColor=#232F3E;gradientColor=none;strokeColor=#ffffff;fillColor=#232F3E;dashed=0;verticalLabelPosition=middle;verticalAlign=bottom;align=center;html=1;whiteSpace=wrap;fontSize=10;fontStyle=1;spacing=3;shape=mxgraph.aws4.productIcon;prIcon=mxgraph.aws4.application_load_balancer;" vertex="1" parent="1">
          <mxGeometry x="320" y="238" width="80" height="110" as="geometry" />
        </mxCell>
        <mxCell id="rx5BBwoxbv0PvwcBal-X-6" value="" style="rounded=1;arcSize=10;dashed=1;fillColor=none;gradientColor=none;dashPattern=8 3 1 3;strokeWidth=2;" vertex="1" parent="1">
          <mxGeometry x="430.25" y="115" width="199.5" height="340" as="geometry" />
        </mxCell>
        <mxCell id="rx5BBwoxbv0PvwcBal-X-5" value="AWS Auto Scaling" style="sketch=0;outlineConnect=0;fontColor=#232F3E;gradientColor=none;strokeColor=#ffffff;fillColor=#232F3E;dashed=0;verticalLabelPosition=middle;verticalAlign=bottom;align=center;html=1;whiteSpace=wrap;fontSize=10;fontStyle=1;spacing=3;shape=mxgraph.aws4.productIcon;prIcon=mxgraph.aws4.autoscaling;" vertex="1" parent="1">
          <mxGeometry x="490" y="60" width="80" height="110" as="geometry" />
        </mxCell>
        <mxCell id="rx5BBwoxbv0PvwcBal-X-7" value="Amazon ECS" style="sketch=0;outlineConnect=0;fontColor=#232F3E;gradientColor=none;strokeColor=#ffffff;fillColor=#232F3E;dashed=0;verticalLabelPosition=middle;verticalAlign=bottom;align=center;html=1;whiteSpace=wrap;fontSize=10;fontStyle=1;spacing=3;shape=mxgraph.aws4.productIcon;prIcon=mxgraph.aws4.ecs;" vertex="1" parent="1">
          <mxGeometry x="490" y="190" width="80" height="100" as="geometry" />
        </mxCell>
        <mxCell id="rx5BBwoxbv0PvwcBal-X-9" value="" style="endArrow=none;dashed=1;html=1;rounded=0;strokeWidth=4;dashPattern=1 4;" edge="1" parent="1">
          <mxGeometry width="50" height="50" relative="1" as="geometry">
            <mxPoint x="529" y="322" as="sourcePoint" />
            <mxPoint x="529" y="292" as="targetPoint" />
          </mxGeometry>
        </mxCell>
        <mxCell id="rx5BBwoxbv0PvwcBal-X-11" value="Amazon S3" style="sketch=0;outlineConnect=0;fontColor=#232F3E;gradientColor=none;strokeColor=#ffffff;fillColor=#232F3E;dashed=0;verticalLabelPosition=middle;verticalAlign=bottom;align=center;html=1;whiteSpace=wrap;fontSize=10;fontStyle=1;spacing=3;shape=mxgraph.aws4.productIcon;prIcon=mxgraph.aws4.s3;" vertex="1" parent="1">
          <mxGeometry x="690" y="235" width="80" height="100" as="geometry" />
        </mxCell>
        <mxCell id="rx5BBwoxbv0PvwcBal-X-12" value="Amazon Athena" style="sketch=0;outlineConnect=0;fontColor=#232F3E;gradientColor=none;strokeColor=#ffffff;fillColor=#232F3E;dashed=0;verticalLabelPosition=middle;verticalAlign=bottom;align=center;html=1;whiteSpace=wrap;fontSize=10;fontStyle=1;spacing=3;shape=mxgraph.aws4.productIcon;prIcon=mxgraph.aws4.athena;" vertex="1" parent="1">
          <mxGeometry x="827" y="233" width="80" height="110" as="geometry" />
        </mxCell>
        <mxCell id="rx5BBwoxbv0PvwcBal-X-14" value="" style="sketch=0;pointerEvents=1;shadow=0;dashed=0;html=1;strokeColor=none;fillColor=#434445;aspect=fixed;labelPosition=center;verticalLabelPosition=bottom;verticalAlign=top;align=center;outlineConnect=0;shape=mxgraph.vvd.nsx_dashboard;" vertex="1" parent="1">
          <mxGeometry x="1090" y="232" width="98.92" height="92" as="geometry" />
        </mxCell>
        <mxCell id="rx5BBwoxbv0PvwcBal-X-15" value="Dashboard" style="text;html=1;align=center;verticalAlign=middle;whiteSpace=wrap;rounded=0;" vertex="1" parent="1">
          <mxGeometry x="1109.46" y="324" width="60" height="30" as="geometry" />
        </mxCell>
        <mxCell id="rx5BBwoxbv0PvwcBal-X-17" value="" style="endArrow=classic;html=1;rounded=0;" edge="1" parent="1">
          <mxGeometry width="50" height="50" relative="1" as="geometry">
            <mxPoint x="125" y="280" as="sourcePoint" />
            <mxPoint x="175" y="280" as="targetPoint" />
          </mxGeometry>
        </mxCell>
        <mxCell id="rx5BBwoxbv0PvwcBal-X-18" value="" style="endArrow=classic;html=1;rounded=0;" edge="1" parent="1">
          <mxGeometry width="50" height="50" relative="1" as="geometry">
            <mxPoint x="266" y="281" as="sourcePoint" />
            <mxPoint x="316" y="281" as="targetPoint" />
          </mxGeometry>
        </mxCell>
        <mxCell id="rx5BBwoxbv0PvwcBal-X-19" value="" style="endArrow=classic;html=1;rounded=0;" edge="1" parent="1">
          <mxGeometry width="50" height="50" relative="1" as="geometry">
            <mxPoint x="401" y="281" as="sourcePoint" />
            <mxPoint x="426" y="281" as="targetPoint" />
          </mxGeometry>
        </mxCell>
        <mxCell id="rx5BBwoxbv0PvwcBal-X-21" value="" style="endArrow=classic;html=1;rounded=0;" edge="1" parent="1">
          <mxGeometry width="50" height="50" relative="1" as="geometry">
            <mxPoint x="635" y="280" as="sourcePoint" />
            <mxPoint x="685" y="280" as="targetPoint" />
          </mxGeometry>
        </mxCell>
        <mxCell id="rx5BBwoxbv0PvwcBal-X-22" value="" style="sketch=0;points=[[0,0,0],[0.25,0,0],[0.5,0,0],[0.75,0,0],[1,0,0],[0,1,0],[0.25,1,0],[0.5,1,0],[0.75,1,0],[1,1,0],[0,0.25,0],[0,0.5,0],[0,0.75,0],[1,0.25,0],[1,0.5,0],[1,0.75,0]];outlineConnect=0;fontColor=#232F3E;fillColor=#7AA116;strokeColor=#ffffff;dashed=0;verticalLabelPosition=bottom;verticalAlign=top;align=center;html=1;fontSize=12;fontStyle=0;aspect=fixed;shape=mxgraph.aws4.resourceIcon;resIcon=mxgraph.aws4.s3;" vertex="1" parent="1">
          <mxGeometry x="691" y="130" width="78" height="78" as="geometry" />
        </mxCell>
        <mxCell id="rx5BBwoxbv0PvwcBal-X-24" value="Datalake" style="text;html=1;align=center;verticalAlign=middle;whiteSpace=wrap;rounded=0;" vertex="1" parent="1">
          <mxGeometry x="700" y="203" width="60" height="30" as="geometry" />
        </mxCell>
        <mxCell id="rx5BBwoxbv0PvwcBal-X-27" value="" style="swimlane;startSize=0;" vertex="1" parent="1">
          <mxGeometry x="20" y="40" width="770" height="450" as="geometry" />
        </mxCell>
        <mxCell id="rx5BBwoxbv0PvwcBal-X-28" value="DataLake 수집" style="text;html=1;align=center;verticalAlign=middle;whiteSpace=wrap;rounded=0;" vertex="1" parent="rx5BBwoxbv0PvwcBal-X-27">
          <mxGeometry x="18" width="80" height="30" as="geometry" />
        </mxCell>
        <mxCell id="rx5BBwoxbv0PvwcBal-X-23" value="" style="sketch=0;points=[[0,0,0],[0.25,0,0],[0.5,0,0],[0.75,0,0],[1,0,0],[0,1,0],[0.25,1,0],[0.5,1,0],[0.75,1,0],[1,1,0],[0,0.25,0],[0,0.5,0],[0,0.75,0],[1,0.25,0],[1,0.5,0],[1,0.75,0]];outlineConnect=0;dashed=0;verticalLabelPosition=bottom;verticalAlign=top;align=center;html=1;fontSize=12;fontStyle=0;aspect=fixed;shape=mxgraph.aws4.resourceIcon;resIcon=mxgraph.aws4.s3;" vertex="1" parent="rx5BBwoxbv0PvwcBal-X-27">
          <mxGeometry x="669" y="314" width="78" height="78" as="geometry" />
        </mxCell>
        <mxCell id="rx5BBwoxbv0PvwcBal-X-25" value="Airflow Sensor 확인용 S3" style="text;html=1;align=center;verticalAlign=middle;whiteSpace=wrap;rounded=0;" vertex="1" parent="rx5BBwoxbv0PvwcBal-X-27">
          <mxGeometry x="669" y="392" width="80" height="30" as="geometry" />
        </mxCell>
        <mxCell id="rx5BBwoxbv0PvwcBal-X-37" value="" style="outlineConnect=0;dashed=0;verticalLabelPosition=bottom;verticalAlign=top;align=center;html=1;shape=mxgraph.aws3.queue;fillColor=#D9A741;gradientColor=none;" vertex="1" parent="rx5BBwoxbv0PvwcBal-X-27">
          <mxGeometry x="160" y="130" width="73.5" height="48" as="geometry" />
        </mxCell>
        <mxCell id="rx5BBwoxbv0PvwcBal-X-38" value="" style="outlineConnect=0;dashed=0;verticalLabelPosition=bottom;verticalAlign=top;align=center;html=1;shape=mxgraph.aws3.queue;fillColor=#f8cecc;strokeColor=#b85450;" vertex="1" parent="rx5BBwoxbv0PvwcBal-X-27">
          <mxGeometry x="160" y="329" width="73.5" height="48" as="geometry" />
        </mxCell>
        <mxCell id="rx5BBwoxbv0PvwcBal-X-39" value="작업 큐" style="text;html=1;align=center;verticalAlign=middle;whiteSpace=wrap;rounded=0;" vertex="1" parent="rx5BBwoxbv0PvwcBal-X-27">
          <mxGeometry x="166.75" y="174" width="60" height="30" as="geometry" />
        </mxCell>
        <mxCell id="rx5BBwoxbv0PvwcBal-X-40" value="dead letter queue" style="text;html=1;align=center;verticalAlign=middle;whiteSpace=wrap;rounded=0;" vertex="1" parent="rx5BBwoxbv0PvwcBal-X-27">
          <mxGeometry x="173.5" y="377" width="60" height="30" as="geometry" />
        </mxCell>
        <mxCell id="rx5BBwoxbv0PvwcBal-X-42" value="AWS Lambda" style="sketch=0;outlineConnect=0;fontColor=#232F3E;gradientColor=none;strokeColor=#ffffff;fillColor=#232F3E;dashed=0;verticalLabelPosition=middle;verticalAlign=bottom;align=center;html=1;whiteSpace=wrap;fontSize=10;fontStyle=1;spacing=3;shape=mxgraph.aws4.productIcon;prIcon=mxgraph.aws4.lambda;" vertex="1" parent="rx5BBwoxbv0PvwcBal-X-27">
          <mxGeometry x="250" y="80" width="40" height="80" as="geometry" />
        </mxCell>
        <mxCell id="rx5BBwoxbv0PvwcBal-X-43" value="작업 큐에 작업이 없으면 S3 에 완료처리" style="text;html=1;align=center;verticalAlign=middle;whiteSpace=wrap;rounded=0;" vertex="1" parent="rx5BBwoxbv0PvwcBal-X-27">
          <mxGeometry x="208.38" y="40" width="123.25" height="40" as="geometry" />
        </mxCell>
        <mxCell id="rx5BBwoxbv0PvwcBal-X-29" value="" style="swimlane;startSize=0;" vertex="1" parent="1">
          <mxGeometry x="800" y="100" width="450" height="350" as="geometry" />
        </mxCell>
        <mxCell id="rx5BBwoxbv0PvwcBal-X-30" value="데이터 마트 및 대시보드 출력" style="text;html=1;align=center;verticalAlign=middle;whiteSpace=wrap;rounded=0;" vertex="1" parent="rx5BBwoxbv0PvwcBal-X-29">
          <mxGeometry x="18" width="152" height="30" as="geometry" />
        </mxCell>
        <mxCell id="rx5BBwoxbv0PvwcBal-X-13" value="Amazon RDS" style="sketch=0;outlineConnect=0;fontColor=#232F3E;gradientColor=none;strokeColor=#ffffff;fillColor=#232F3E;dashed=0;verticalLabelPosition=middle;verticalAlign=bottom;align=center;html=1;whiteSpace=wrap;fontSize=10;fontStyle=1;spacing=3;shape=mxgraph.aws4.productIcon;prIcon=mxgraph.aws4.rds;" vertex="1" parent="rx5BBwoxbv0PvwcBal-X-29">
          <mxGeometry x="145" y="216" width="80" height="100" as="geometry" />
        </mxCell>
        <mxCell id="rx5BBwoxbv0PvwcBal-X-33" value="&lt;div&gt;SQLExecuteQueryOperator(&lt;/div&gt;&lt;div&gt;&lt;span style=&quot;white-space: normal;&quot;&gt;&lt;span style=&quot;white-space:pre&quot;&gt;&#x9;&lt;/span&gt;task_id=&quot;집계 데이터 Insert&quot;,&lt;/span&gt;&lt;/div&gt;&lt;div&gt;&lt;span style=&quot;white-space: normal;&quot;&gt;&lt;span style=&quot;white-space:pre&quot;&gt;&#x9;&lt;/span&gt;sql=&quot; table_import_from_s3 &quot;,)&lt;/span&gt;&lt;/div&gt;" style="shape=note;whiteSpace=wrap;html=1;backgroundOutline=1;darkOpacity=0.05;align=left;" vertex="1" parent="rx5BBwoxbv0PvwcBal-X-29">
          <mxGeometry x="100" y="352" width="220" height="70" as="geometry" />
        </mxCell>
        <mxCell id="rx5BBwoxbv0PvwcBal-X-31" value="" style="endArrow=classic;html=1;rounded=0;exitX=0.5;exitY=1;exitDx=0;exitDy=0;" edge="1" parent="1" source="rx5BBwoxbv0PvwcBal-X-2" target="rx5BBwoxbv0PvwcBal-X-12">
          <mxGeometry width="50" height="50" relative="1" as="geometry">
            <mxPoint x="684" y="357" as="sourcePoint" />
            <mxPoint x="734" y="357" as="targetPoint" />
            <Array as="points">
              <mxPoint x="810" y="348" />
            </Array>
          </mxGeometry>
        </mxCell>
        <mxCell id="rx5BBwoxbv0PvwcBal-X-35" value="" style="endArrow=classic;html=1;rounded=0;exitX=0.5;exitY=1;exitDx=0;exitDy=0;" edge="1" parent="1" target="rx5BBwoxbv0PvwcBal-X-13">
          <mxGeometry width="50" height="50" relative="1" as="geometry">
            <mxPoint x="89" y="364" as="sourcePoint" />
            <mxPoint x="837" y="346" as="targetPoint" />
            <Array as="points">
              <mxPoint x="940" y="364" />
            </Array>
          </mxGeometry>
        </mxCell>
        <mxCell id="rx5BBwoxbv0PvwcBal-X-36" value="" style="endArrow=classic;html=1;rounded=0;" edge="1" parent="1" target="rx5BBwoxbv0PvwcBal-X-13">
          <mxGeometry width="50" height="50" relative="1" as="geometry">
            <mxPoint x="1090" y="286" as="sourcePoint" />
            <mxPoint x="360" y="360" as="targetPoint" />
          </mxGeometry>
        </mxCell>
        <mxCell id="rx5BBwoxbv0PvwcBal-X-8" value="Amazon ECS" style="sketch=0;outlineConnect=0;fontColor=#232F3E;gradientColor=none;strokeColor=#ffffff;fillColor=#232F3E;dashed=0;verticalLabelPosition=middle;verticalAlign=bottom;align=center;html=1;whiteSpace=wrap;fontSize=10;fontStyle=1;spacing=3;shape=mxgraph.aws4.productIcon;prIcon=mxgraph.aws4.ecs;" vertex="1" parent="1">
          <mxGeometry x="490" y="330" width="80" height="100" as="geometry" />
        </mxCell>
      </root>
    </mxGraphModel>
  </diagram>
</mxfile>
